<?xml version="1.0" encoding="UTF-8" standalone="no"?>
<svg
   xmlns:dc="http://purl.org/dc/elements/1.1/"
   xmlns:cc="http://creativecommons.org/ns#"
   xmlns:rdf="http://www.w3.org/1999/02/22-rdf-syntax-ns#"
   xmlns:svg="http://www.w3.org/2000/svg"
   xmlns="http://www.w3.org/2000/svg"
   xmlns:sodipodi="http://sodipodi.sourceforge.net/DTD/sodipodi-0.dtd"
   xmlns:inkscape="http://www.inkscape.org/namespaces/inkscape"
   width="35px"
   height="35px"
   viewBox="0 0 35 35"
   version="1.1"
   id="svg9181"
   inkscape:version="0.48.4 r9939"
   sodipodi:docname="icon-invite-people.svg">
  <metadata
     id="metadata9204">
    <rdf:RDF>
      <cc:Work
         rdf:about="">
        <dc:format>image/svg+xml</dc:format>
        <dc:type
           rdf:resource="http://purl.org/dc/dcmitype/StillImage" />
      </cc:Work>
    </rdf:RDF>
  </metadata>
  <sodipodi:namedview
     pagecolor="#ffffff"
     bordercolor="#666666"
     borderopacity="1"
     objecttolerance="10"
     gridtolerance="10"
     guidetolerance="10"
     inkscape:pageopacity="0"
     inkscape:pageshadow="2"
     inkscape:window-width="1098"
     inkscape:window-height="480"
     id="namedview9202"
     showgrid="false"
     inkscape:zoom="6.7428571"
     inkscape:cx="22.237613"
     inkscape:cy="17.5"
     inkscape:window-x="65"
     inkscape:window-y="24"
     inkscape:window-maximized="0"
     inkscape:current-layer="svg9181" />
  <!-- Generator: sketchtool 39.1 (31720) - http://www.bohemiancoding.com/sketch -->
  <title
     id="title9183">9BA71BF4-DC4F-42D2-B2D0-9EAE0F7F8D45</title>
  <desc
     id="desc9185">Created with sketchtool.</desc>
  <defs
     id="defs9187" />
  <path
     style="fill:#d4ccb1;stroke:none;fill-opacity:1"
     inkscape:connector-curvature="0"
     id="Oval"
     d="M 17.5,35 C 27.164983,35 35,27.164983 35,17.5 35,7.8350169 27.164983,0 17.5,0 7.8350169,0 0,7.8350169 0,17.5 0,27.164983 7.8350169,35 17.5,35 z" />
  <g
     style="fill:none;stroke:#ffffff"
     transform="translate(8,9)"
     id="Group-5">
    <g
       style="opacity:0.8;stroke-linecap:round"
       transform="translate(14.4375,3.9375)"
       id="Group-3">
      <path
         inkscape:connector-curvature="0"
         id="Line"
         d="m 0,3.28125 6.5625,0" />
      <path
         inkscape:connector-curvature="0"
         id="path9196"
         d="m 3.28125,0 0,6.5625" />
    </g>
    <g
       id="icons_people_svg">
      <path
         style="stroke-linecap:round;stroke-linejoin:round"
         inkscape:connector-curvature="0"
         id="Oval-40"
         d="m 13.78125,15.75 c 0,-3.624369 0,-6.5625 -6.5625,-6.5625 -6.56250026,0 -6.5625,2.938131 -6.5625,6.5625 4.5618231,0 7.3123169,0 13.125,0 z" />
      <circle
         sodipodi:ry="3.609375"
         sodipodi:rx="3.609375"
         sodipodi:cy="3.609375"
         sodipodi:cx="7.21875"
         d="m 10.828125,3.609375 c 0,1.9934028 -1.6159722,3.609375 -3.609375,3.609375 -1.9934028,0 -3.609375,-1.6159722 -3.609375,-3.609375 C 3.609375,1.6159722 5.2253472,0 7.21875,0 c 1.9934028,0 3.609375,1.6159722 3.609375,3.609375 z"
         r="3.609375"
         cy="3.609375"
         cx="7.21875"
         id="circle9200" />
    </g>
  </g>
</svg>
