<?xml version="1.0" encoding="UTF-8" standalone="no"?>
<svg
   xmlns:dc="http://purl.org/dc/elements/1.1/"
   xmlns:cc="http://creativecommons.org/ns#"
   xmlns:rdf="http://www.w3.org/1999/02/22-rdf-syntax-ns#"
   xmlns:svg="http://www.w3.org/2000/svg"
   xmlns="http://www.w3.org/2000/svg"
   xmlns:sodipodi="http://sodipodi.sourceforge.net/DTD/sodipodi-0.dtd"
   xmlns:inkscape="http://www.inkscape.org/namespaces/inkscape"
   width="25px"
   height="25px"
   viewBox="0 0 25 25"
   version="1.1"
   id="svg7317"
   inkscape:version="0.48.4 r9939"
   sodipodi:docname="icons-notifications.svg">
  <metadata
     id="metadata7335">
    <rdf:RDF>
      <cc:Work
         rdf:about="">
        <dc:format>image/svg+xml</dc:format>
        <dc:type
           rdf:resource="http://purl.org/dc/dcmitype/StillImage" />
      </cc:Work>
    </rdf:RDF>
  </metadata>
  <sodipodi:namedview
     pagecolor="#ffffff"
     bordercolor="#666666"
     borderopacity="1"
     objecttolerance="10"
     gridtolerance="10"
     guidetolerance="10"
     inkscape:pageopacity="0"
     inkscape:pageshadow="2"
     inkscape:window-width="810"
     inkscape:window-height="480"
     id="namedview7333"
     showgrid="false"
     inkscape:zoom="9.44"
     inkscape:cx="12.5"
     inkscape:cy="12.5"
     inkscape:window-x="65"
     inkscape:window-y="24"
     inkscape:window-maximized="0"
     inkscape:current-layer="svg7317" />
  <!-- Generator: sketchtool 39.1 (31720) - http://www.bohemiancoding.com/sketch -->
  <title
     id="title7319">5E723325-BD0B-454D-BE25-638AF09A97AC</title>
  <desc
     id="desc7321">Created with sketchtool.</desc>
  <defs
     id="defs7323" />
  <path
     style="fill:#d4ccb1;stroke:none;fill-opacity:1"
     inkscape:connector-curvature="0"
     id="Oval-1-Copy-7"
     d="M 12.5,25 C 19.403559,25 25,19.403559 25,12.5 25,5.5964406 19.403559,0 12.5,0 5.5964406,0 0,5.5964406 0,12.5 0,19.403559 5.5964406,25 12.5,25 z" />
  <path
     d="m 12.416667,20.722222 c 0.966498,0 1.75,-0.783501 1.75,-1.75 0,-0.966498 -0.783502,-1.75 -1.75,-1.75 -0.966499,0 -1.75,0.783502 -1.75,1.75 0,0.966499 0.783501,1.75 1.75,1.75 z"
     id="Oval-49"
     inkscape:connector-curvature="0"
     style="opacity:0.8;fill:none;stroke:#ffffff" />
  <path
     d="m 8,16.448867 c 0,-0.002 9.004423,-0.0044 9.004423,-0.0044 -0.002,0 -0.0044,-4.5 -0.0044,-4.5 0,-2.4814084 -2.017025,-4.4999996 -4.5,-4.4999996 -2.481409,0 -4.5,2.0170255 -4.5,4.4999996 L 8,16.448867 z M 12.5,6.4444444 c 3.037566,0 5.5,2.4686148 5.5,5.4999996 l 0,4.504423 c 0,0.549842 -0.444837,0.995577 -0.995577,0.995577 l -9.0088455,0 C 7.4457352,17.444444 7,16.999608 7,16.448867 L 7,11.944444 C 7,8.9068783 9.4686147,6.4444444 12.5,6.4444444 z"
     id="Rectangle-15"
     inkscape:connector-curvature="0"
     style="opacity:0.8;fill:#ffffff;stroke:none" />
  <path
     d="m 11.277778,5.8333333 2.444444,0"
     id="Line"
     inkscape:connector-curvature="0"
     style="opacity:0.8;fill:none;stroke:#ffffff;stroke-linecap:round" />
</svg>
