<?xml version="1.0" encoding="UTF-8" standalone="no"?>
<svg
   xmlns:dc="http://purl.org/dc/elements/1.1/"
   xmlns:cc="http://creativecommons.org/ns#"
   xmlns:rdf="http://www.w3.org/1999/02/22-rdf-syntax-ns#"
   xmlns:svg="http://www.w3.org/2000/svg"
   xmlns="http://www.w3.org/2000/svg"
   xmlns:sodipodi="http://sodipodi.sourceforge.net/DTD/sodipodi-0.dtd"
   xmlns:inkscape="http://www.inkscape.org/namespaces/inkscape"
   width="25px"
   height="25px"
   viewBox="0 0 25 25"
   version="1.1"
   id="svg9206"
   inkscape:version="0.48.4 r9939"
   sodipodi:docname="icons-settings.svg">
  <metadata
     id="metadata9221">
    <rdf:RDF>
      <cc:Work
         rdf:about="">
        <dc:format>image/svg+xml</dc:format>
        <dc:type
           rdf:resource="http://purl.org/dc/dcmitype/StillImage" />
      </cc:Work>
    </rdf:RDF>
  </metadata>
  <sodipodi:namedview
     pagecolor="#ffffff"
     bordercolor="#666666"
     borderopacity="1"
     objecttolerance="10"
     gridtolerance="10"
     guidetolerance="10"
     inkscape:pageopacity="0"
     inkscape:pageshadow="2"
     inkscape:window-width="1855"
     inkscape:window-height="1056"
     id="namedview9219"
     showgrid="false"
     inkscape:zoom="9.44"
     inkscape:cx="-9.1631356"
     inkscape:cy="12.5"
     inkscape:window-x="65"
     inkscape:window-y="24"
     inkscape:window-maximized="1"
     inkscape:current-layer="svg9206" />
  <!-- Generator: sketchtool 3.8.3 (29802) - http://www.bohemiancoding.com/sketch -->
  <title
     id="title9208">4D42A2A7-7430-4D4F-A0A2-E19278CF66E3</title>
  <desc
     id="desc9210">Created with sketchtool.</desc>
  <defs
     id="defs9212" />
  <path
     style="fill:#d4ccb1;stroke:none;fill-opacity:1"
     inkscape:connector-curvature="0"
     id="Oval-1-Copy-7"
     d="M 12.5,25 C 19.403559,25 25,19.403559 25,12.5 25,5.5964406 19.403559,0 12.5,0 5.5964406,0 0,5.5964406 0,12.5 0,19.403559 5.5964406,25 12.5,25 z" />
  <path
     style="opacity:0.8;fill:none;stroke:#ffffff"
     inkscape:connector-curvature="0"
     id="icons_settings-copy"
     d="m 15.625,12.5 c 0,-0.862634 -0.305173,-1.599118 -0.915527,-2.209473 C 14.099118,9.6801727 13.362635,9.375 12.5,9.375 c -0.862634,0 -1.599118,0.3051727 -2.209473,0.915527 C 9.6801727,10.900882 9.375,11.637366 9.375,12.5 c 0,0.862635 0.3051727,1.599118 0.915527,2.209473 C 10.900882,15.319827 11.637366,15.625 12.5,15.625 c 0.862635,0 1.599118,-0.305173 2.209473,-0.915527 C 15.319827,14.099118 15.625,13.362635 15.625,12.5 l 0,0 z m 4.166667,-1.034885 0,2.107747 c 0,0.07596 -0.02532,0.148745 -0.07596,0.218371 -0.05064,0.06963 -0.113932,0.110767 -0.189887,0.123426 l -1.756457,0.265842 c -0.120262,0.341799 -0.243687,0.629791 -0.370279,0.863987 0.221536,0.31648 0.560164,0.753216 1.015896,1.310221 0.0633,0.07596 0.09494,0.155074 0.09494,0.237359 0,0.08228 -0.02848,0.155074 -0.08545,0.21837 -0.170899,0.234196 -0.48421,0.575989 -0.939941,1.025391 -0.455732,0.449402 -0.753219,0.674099 -0.89247,0.674099 -0.07596,0 -0.158239,-0.02848 -0.246853,-0.08545 l -1.310221,-1.02539 c -0.278503,0.14558 -0.566496,0.265841 -0.863987,0.360785 -0.101274,0.860826 -0.193052,1.44947 -0.275336,1.765951 -0.04431,0.177228 -0.158239,0.265842 -0.341797,0.265842 l -2.107748,0 c -0.08861,0 -0.166151,-0.0269 -0.232611,-0.0807 -0.06646,-0.0538 -0.102856,-0.121844 -0.109186,-0.204129 L 10.838487,17.759874 C 10.528337,17.6586 10.243509,17.541505 9.9839952,17.408583 l -1.3387044,1.015896 c -0.063296,0.05697 -0.1424149,0.08545 -0.2373589,0.08545 -0.088615,0 -0.1677333,-0.03481 -0.237359,-0.104438 -0.79753,-0.721574 -1.3197145,-1.253253 -1.566569,-1.595052 -0.044307,-0.0633 -0.066461,-0.136085 -0.066461,-0.21837 0,-0.07596 0.025318,-0.148744 0.075955,-0.21837 C 6.7084423,16.240776 6.8698448,16.03032 7.0977105,15.742323 7.3255762,15.454326 7.4964729,15.231211 7.6104058,15.072971 7.4395065,14.756491 7.3097516,14.44318 7.2211371,14.133029 L 5.4836697,13.876682 c -0.082285,-0.01266 -0.1487447,-0.05222 -0.1993815,-0.11868 -0.050637,-0.06646 -0.075955,-0.140832 -0.075955,-0.223117 l 0,-2.107747 c 0,-0.07596 0.025318,-0.148745 0.075955,-0.218371 C 5.334925,11.139142 5.3950553,11.098 5.464681,11.085341 L 7.2306315,10.819499 C 7.319246,10.528337 7.4426714,10.23718 7.6009115,9.9460178 7.3477273,9.5852304 7.0090986,9.1484943 6.5850152,8.6357964 6.5217192,8.5598412 6.4900716,8.4838871 6.4900716,8.4079319 c 0,-0.063296 0.028483,-0.1360854 0.085449,-0.2183703 C 6.7400905,7.9616959 7.0518188,7.6214848 7.5107151,7.1689182 7.9696113,6.7163515 8.2686806,6.4900716 8.4079319,6.4900716 c 0.082285,0 0.1645684,0.031648 0.2468533,0.094944 L 9.9650065,7.6009115 C 10.243509,7.4553306 10.531502,7.3350699 10.828993,7.2401259 c 0.101274,-0.8608261 0.193052,-1.4494704 0.275336,-1.7659505 0.04431,-0.177229 0.158239,-0.2658421 0.341797,-0.2658421 l 2.107748,0 c 0.08861,0 0.166151,0.0269 0.232612,0.080702 0.06646,0.053802 0.102855,0.1218438 0.109185,0.2041287 l 0.265842,1.7469618 c 0.31015,0.1012736 0.594978,0.2183695 0.854492,0.3512912 l 1.348199,-1.0158963 c 0.05697,-0.056966 0.13292,-0.085449 0.227864,-0.085449 0.08228,0 0.161404,0.031648 0.237359,0.094944 0.816519,0.7532228 1.338703,1.291231 1.566569,1.6140408 0.04431,0.050637 0.06646,0.1202614 0.06646,0.2088759 0,0.075955 -0.02532,0.1487446 -0.07596,0.2183702 -0.09494,0.1329217 -0.256347,0.3433778 -0.484213,0.6313748 -0.227865,0.2879969 -0.398762,0.5111121 -0.512695,0.6693522 0.16457,0.3164804 0.294325,0.6266264 0.389269,0.9304474 l 1.737467,0.265842 c 0.08228,0.01266 0.148745,0.05222 0.199382,0.11868 0.05064,0.06646 0.07596,0.140832 0.07596,0.223117 l 0,0 z" />
</svg>
