<?xml version="1.0" encoding="UTF-8" standalone="no"?>
<!-- Created with Inkscape (http://www.inkscape.org/) -->

<svg
   xmlns:dc="http://purl.org/dc/elements/1.1/"
   xmlns:cc="http://creativecommons.org/ns#"
   xmlns:rdf="http://www.w3.org/1999/02/22-rdf-syntax-ns#"
   xmlns:svg="http://www.w3.org/2000/svg"
   xmlns="http://www.w3.org/2000/svg"
   xmlns:sodipodi="http://sodipodi.sourceforge.net/DTD/sodipodi-0.dtd"
   xmlns:inkscape="http://www.inkscape.org/namespaces/inkscape"
   version="1.1"
   id="svg2"
   xml:space="preserve"
   width="627.3457"
   height="194.26132"
   viewBox="0 0 627.34571 194.26132"
   sodipodi:docname="logo_laranja.svg"
   inkscape:version="0.92.3 (2405546, 2018-03-11)"><metadata
     id="metadata8"><rdf:RDF><cc:Work
         rdf:about=""><dc:format>image/svg+xml</dc:format><dc:type
           rdf:resource="http://purl.org/dc/dcmitype/StillImage" /><dc:title></dc:title></cc:Work></rdf:RDF></metadata><defs
     id="defs6"><clipPath
       clipPathUnits="userSpaceOnUse"
       id="clipPath18"><path
         d="M 0,274.019 H 611 V 0 H 0 Z"
         id="path16"
         inkscape:connector-curvature="0" /></clipPath></defs><sodipodi:namedview
     pagecolor="#ffffff"
     bordercolor="#666666"
     borderopacity="1"
     objecttolerance="10"
     gridtolerance="10"
     guidetolerance="10"
     inkscape:pageopacity="0"
     inkscape:pageshadow="2"
     inkscape:window-width="1366"
     inkscape:window-height="719"
     id="namedview4"
     showgrid="false"
     inkscape:zoom="0.97954171"
     inkscape:cx="319.89333"
     inkscape:cy="97.131208"
     inkscape:window-x="0"
     inkscape:window-y="25"
     inkscape:window-maximized="1"
     inkscape:current-layer="g20"
     fit-margin-top="0"
     fit-margin-left="0"
     fit-margin-right="0"
     fit-margin-bottom="0" /><g
     id="g10"
     inkscape:groupmode="layer"
     inkscape:label="1712CE_Logo-08"
     transform="matrix(1.3333333,0,0,-1.3333333,-93.660531,279.80946)"><g
       id="g12"><g
         id="g14"
         clip-path="url(#clipPath18)"><g
           id="g20"
           transform="translate(344.7764,94.3301)"><path
             d="m 0,0 v 8 c 6.741,0 11.935,2.494 15.879,7.623 4.133,5.381 6.229,14.419 6.229,26.863 0,12.289 -2.115,21.179 -6.286,26.422 C 11.816,73.942 6.641,76.39 0,76.39 c -6.643,0 -11.818,-2.448 -15.821,-7.481 -4.172,-5.241 -6.286,-14.131 -6.286,-26.423 0,-12.447 2.095,-21.485 6.229,-26.863 l -6.342,-4.875 c -5.307,6.903 -7.887,17.285 -7.887,31.738 0,14.346 2.625,24.618 8.025,31.404 5.541,6.966 12.971,10.5 22.082,10.5 9.107,0 16.537,-3.533 22.083,-10.5 5.4,-6.79 8.025,-17.062 8.025,-31.404 0,-14.449 -2.58,-24.83 -7.886,-31.737 C 16.738,3.616 9.262,0 0,0"
             style="fill:#e08254;fill-opacity:1;fill-rule:nonzero;stroke:none"
             id="path22"
             inkscape:connector-curvature="0" /></g><g
           id="g24"
           transform="translate(344.7764,64.1611)"><path
             d="m 0,0 c -19.341,0 -35.463,6.456 -47.92,19.188 -12.434,12.706 -18.739,30.695 -18.739,53.467 0,22.889 6.267,40.97 18.628,53.741 12.396,12.806 28.555,19.3 48.031,19.3 11.668,0 22.231,-2.345 31.397,-6.971 6.096,-3.078 11.693,-7.226 16.634,-12.329 l -5.746,-5.565 c -4.319,4.46 -9.195,8.077 -14.493,10.752 -8.037,4.057 -17.388,6.113 -27.792,6.113 -17.468,0 -31.299,-5.516 -42.283,-16.864 -10.866,-11.227 -16.376,-27.436 -16.376,-48.177 0,-20.607 5.537,-36.714 16.457,-47.872 C -31.153,13.489 -17.349,8 0,8 17.347,8 31.151,13.49 42.202,24.783 53.123,35.944 58.66,52.051 58.66,72.655 c 0,7.92 -0.803,15.248 -2.385,21.783 l 7.776,1.882 C 65.782,89.171 66.66,81.208 66.66,72.655 66.66,49.886 60.355,31.896 47.921,19.187 35.461,6.456 19.338,0 0,0"
             style="fill:#e08254;fill-opacity:1;fill-rule:nonzero;stroke:none"
             id="path26"
             inkscape:connector-curvature="0" /></g><path
           inkscape:connector-curvature="0"
           id="path30"
           style="fill:#e08254;fill-opacity:1;fill-rule:nonzero;stroke:none"
           d="m 344.7764,94.3301 v 8 c 6.742,0 11.936,2.493 15.878,7.623 4.135,5.382 6.231,14.42 6.231,26.863 0,12.288 -2.115,21.178 -6.287,26.422 -4.005,5.034 -9.18,7.482 -15.822,7.482 -6.643,0 -11.817,-2.448 -15.82,-7.481 -4.172,-5.241 -6.287,-14.131 -6.287,-26.423 0,-12.447 2.095,-21.485 6.229,-26.863 l -6.342,-4.875 c -5.307,6.903 -7.887,17.285 -7.887,31.738 0,14.347 2.626,24.619 8.026,31.404 5.541,6.966 12.97,10.5 22.081,10.5 9.108,0 16.539,-3.533 22.083,-10.5 5.401,-6.791 8.026,-17.063 8.026,-31.404 0,-14.448 -2.58,-24.829 -7.887,-31.737 -5.483,-7.133 -12.958,-10.749 -22.222,-10.749" /><path
           style="fill:#e08254;fill-opacity:1;fill-rule:nonzero;stroke:none;stroke-width:1.33333325"
           d="m 366.04102,0 c -25.968,0 -47.5124,8.6577554 -64.03907,25.732422 -16.48133,17.026666 -24.83984,41.136251 -24.83984,71.65625 0,30.362668 8.40766,54.347728 24.98633,71.289058 16.60933,16.976 38.10458,25.58399 63.89258,25.58399 25.78399,0 47.28181,-8.60932 63.89648,-25.58399 16.57733,-16.94533 24.98437,-40.92906 24.98438,-71.289058 0,-11.410667 -1.17052,-22.028021 -3.47852,-31.554688 l -10.36914,2.511719 c 2.10933,8.706667 3.17969,18.477636 3.17969,29.042969 0,27.471998 -7.38274,48.948128 -21.94141,63.828128 -14.73733,15.05733 -33.14215,22.37695 -56.27148,22.37695 -23.132,0 -41.53754,-7.31829 -56.26954,-22.37695 -14.56,-14.87734 -21.9414,-36.35213 -21.9414,-63.828128 0,-27.654666 7.3466,-49.266995 21.83594,-64.236328 14.644,-15.130667 33.083,-22.486328 56.375,-22.486328 13.87333,0 26.34197,2.741057 37.05664,8.15039 7.06666,3.566667 13.5676,8.390605 19.32226,14.335938 l 7.66406,-7.419922 C 423.49865,18.929755 416.03496,13.400255 407.9043,9.2949219 395.6843,3.126922 381.59968,0 366.04102,0 Z"
           transform="matrix(0.75000002,0,0,-0.75000002,70.2454,209.8571)"
           id="path34"
           inkscape:connector-curvature="0" /><path
           inkscape:connector-curvature="0"
           id="path38"
           style="fill:#e08254;fill-opacity:1;fill-rule:nonzero;stroke:none"
           d="m 113.4424,142.2314 h -8 v 38.616 h 18.118 c 7.734,0 13.976,-1.856 18.551,-5.518 4.845,-3.875 7.302,-9.286 7.302,-16.081 h -8 c 0,4.303 -1.406,7.52 -4.299,9.835 -3.122,2.498 -7.682,3.764 -13.554,3.764 h -10.118 z m 59.821,-78.07 c -7.771,0 -14.517,1.295 -20.05,3.849 -5.696,2.628 -9.967,6.074 -12.694,10.24 -2.413,3.686 -4.653,7.724 -6.657,12 -1.987,4.24 -3.661,8.223 -4.973,11.839 -1.053,2.897 -2.691,5.253 -5.004,7.202 -2.111,1.775 -4.749,2.638 -8.061,2.638 h -2.382 v -37.773 c 0,-5.449 -3.385,-8.835 -8.834,-8.835 h -25.529 c -5.449,0 -8.834,3.386 -8.834,8.835 v 127.536 h 8 V 74.1564 c 0,-0.389 0.039,-0.63 0.072,-0.764 0.133,-0.032 0.374,-0.071 0.762,-0.071 h 25.529 c 0.388,0 0.629,0.039 0.762,0.072 0.032,0.133 0.072,0.374 0.072,0.763 v 45.773 h 10.382 c 5.201,0 9.647,-1.519 13.212,-4.517 3.368,-2.837 5.848,-6.4 7.372,-10.591 1.232,-3.393 2.812,-7.153 4.699,-11.177 1.843,-3.935 3.897,-7.641 6.106,-11.013 1.892,-2.892 5.039,-5.367 9.352,-7.357 4.476,-2.065 10.093,-3.113 16.698,-3.113 7.38,0 10.767,0.698 12.309,1.285 0.595,0.231 0.847,0.459 0.887,0.52 -0.002,0 0.016,0.057 0.016,0.19 v 19.014 h -1.996 c -5.907,0 -10.569,1.797 -13.858,5.341 -2.831,3.048 -5.53,7.409 -8.247,13.331 -2.353,5.129 -4.673,9.097 -6.896,11.792 l -3.092,3.75 4.274,2.314 c 12.775,6.913 18.985,16.959 18.985,30.712 0,14.427 -3.891,24.465 -11.895,30.683 -8.203,6.372 -21.269,9.604 -38.836,9.604 v 8 c 19.386,0 34.104,-3.797 43.744,-11.286 9.944,-7.727 14.987,-20.176 14.987,-37.001 0,-15.243 -6.477,-27.143 -19.267,-35.433 1.757,-2.7 3.498,-5.942 5.268,-9.799 2.323,-5.064 4.624,-8.841 6.838,-11.223 1.738,-1.874 4.353,-2.785 7.995,-2.785 h 3.094 c 3.184,0 6.902,-2.061 6.902,-7.87 v -19.144 c 0,-3.706 -2.199,-6.687 -6.032,-8.178 -3.227,-1.226 -8.183,-1.817 -15.18,-1.817" /><path
           inkscape:connector-curvature="0"
           id="path42"
           style="fill:#e08254;fill-opacity:1;fill-rule:nonzero;stroke:none"
           d="m 255.585,67.2246 h -8 v 132.638 c 0,0.388 -0.04,0.63 -0.072,0.762 -0.133,0.033 -0.374,0.073 -0.762,0.073 h -25.529 c -0.388,0 -0.629,-0.039 -0.762,-0.073 -0.033,-0.132 -0.072,-0.374 -0.072,-0.762 V 67.2246 h -8 v 132.638 c 0,5.449 3.384,8.835 8.834,8.835 h 25.529 c 5.449,0 8.834,-3.386 8.834,-8.835 z" /><path
           inkscape:connector-curvature="0"
           id="path46"
           style="fill:#e08254;fill-opacity:1;fill-rule:nonzero;stroke:none"
           d="m 484.3437,64.1611 c -8.562,0 -16.559,0.99 -23.769,2.944 -7.304,1.976 -13.351,4.611 -17.97,7.831 -4.527,3.155 -7.986,6.017 -10.575,8.75 -2.552,2.686 -4.699,5.4 -6.378,8.063 -2.591,4.094 -1.886,8.54 1.886,11.891 l 13.423,12.467 c 1.501,1.479 3.298,2.39 5.344,2.709 1.746,0.278 4.392,0.059 7.023,-2.57 l 0.252,-0.276 c 8.691,-10.48 18.753,-15.574 30.764,-15.574 3.905,0 6.869,0.697 8.81,2.07 1.574,1.113 2.275,2.52 2.275,4.567 0,2.388 -0.771,4.231 -2.426,5.798 -2.003,1.898 -4.718,3.419 -8.068,4.519 -3.814,1.249 -8.106,2.457 -12.754,3.59 -4.927,1.198 -9.916,2.782 -14.824,4.706 -5.02,1.964 -9.685,4.419 -13.863,7.296 -4.507,3.101 -8.184,7.64 -10.926,13.49 -2.689,5.727 -4.053,12.513 -4.053,20.167 0,12.277 5.038,22.711 14.973,31.014 9.717,8.124 23.008,12.243 39.502,12.243 8.039,0 15.476,-0.89 22.106,-2.646 6.746,-1.791 12.349,-4.237 16.653,-7.268 4.171,-2.945 7.36,-5.568 9.749,-8.023 2.405,-2.476 4.425,-5.112 6.008,-7.84 1.859,-3.171 1.998,-7.781 -3.216,-11.166 l -15.226,-10.218 c -6.882,-4.587 -10.719,-1.415 -12.052,0.159 l -0.146,0.183 c -4.95,6.6 -11.709,9.813 -20.651,9.813 -0.156,0 -0.31,-0.001 -0.467,-0.002 l -0.084,-10e-4 -0.083,0.002 c -3.517,0.104 -6.25,-0.508 -8.165,-1.817 -1.574,-1.077 -2.322,-2.353 -2.416,-4.13 0.021,-1.883 0.717,-3.303 2.251,-4.594 2.054,-1.729 4.799,-3.172 8.162,-4.291 3.813,-1.272 8.04,-2.553 12.571,-3.808 4.776,-1.328 9.658,-3.045 14.514,-5.105 4.974,-2.115 9.571,-4.708 13.663,-7.708 4.399,-3.227 7.98,-7.781 10.645,-13.535 2.621,-5.672 3.949,-12.353 3.949,-19.86 h -8 c 0,6.34 -1.08,11.891 -3.21,16.501 -2.09,4.512 -4.82,8.026 -8.114,10.443 -3.596,2.635 -7.654,4.922 -12.061,6.795 -4.534,1.924 -9.086,3.525 -13.526,4.76 -4.659,1.291 -9.021,2.613 -12.959,3.927 -4.324,1.438 -7.955,3.377 -10.787,5.761 -3.335,2.808 -5.098,6.541 -5.098,10.797 l 0.003,0.164 c 0.179,4.345 2.219,7.972 5.9,10.488 3.322,2.27 7.634,3.356 12.829,3.211 0.16,0.001 0.32,0.002 0.48,0.002 11.225,0 20.176,-4.186 26.624,-12.451 0.336,0.114 0.915,0.369 1.78,0.947 l 15.268,10.244 c 0.332,0.216 0.546,0.388 0.681,0.512 -1.26,2.159 -2.872,4.252 -4.802,6.24 -2.012,2.066 -4.914,4.443 -8.624,7.061 -3.524,2.484 -8.268,4.528 -14.094,6.074 -5.96,1.579 -12.708,2.379 -20.055,2.379 -14.567,0 -26.131,-3.493 -34.372,-10.382 -8.144,-6.805 -12.103,-14.942 -12.103,-24.875 0,-6.469 1.108,-12.112 3.296,-16.77 2.131,-4.548 4.896,-8.011 8.22,-10.297 3.673,-2.53 7.792,-4.695 12.243,-6.436 4.577,-1.795 9.218,-3.27 13.799,-4.383 4.851,-1.182 9.343,-2.448 13.354,-3.761 4.484,-1.473 8.211,-3.596 11.078,-6.313 3.268,-3.095 4.924,-7 4.924,-11.606 0,-4.646 -1.956,-8.484 -5.657,-11.099 -3.316,-2.347 -7.835,-3.538 -13.428,-3.538 -14.271,0 -26.644,6.156 -36.779,18.295 -0.091,0.084 -0.164,0.142 -0.219,0.18 -0.295,-0.079 -0.536,-0.229 -0.786,-0.478 l -0.107,-0.102 -13.537,-12.572 c -1.008,-0.898 -0.93,-1.02 -0.502,-1.698 1.404,-2.223 3.226,-4.519 5.419,-6.829 2.185,-2.305 5.327,-4.892 9.346,-7.693 3.862,-2.692 9.072,-4.937 15.487,-6.672 6.53,-1.77 13.823,-2.666 21.678,-2.666 z" /></g></g></g></svg>